<?xml version="1.0" encoding="iso-8859-1"?>
<!-- Generator: Adobe Illustrator 19.0.0, SVG Export Plug-In . SVG Version: 6.00 Build 0)  -->
<svg version="1.1" id="Capa_1" xmlns="http://www.w3.org/2000/svg" xmlns:xlink="http://www.w3.org/1999/xlink" x="0px" y="0px"
	 viewBox="0 0 511.868 511.868" style="enable-background:new 0 0 511.868 511.868;" xml:space="preserve">
<g transform="translate(-1)">
	<g>
		<g>
			<path d="M476.304,276.526l-1.017-1.242c-14.832-18.587-27.572-38.75-37.992-60.125c-0.661-1.086-1.129-2.279-1.383-3.525
				c0.016-2.467,3.616-5.683,7.1-8.8c6.447-4.613,10.996-11.414,12.8-19.133c0.383-4.888-0.439-9.795-2.392-14.292
				c-1.558-4.025-3.383-7.967-5.208-11.908c-3.138-6.174-5.637-12.652-7.458-19.333c-2.216-10.398-5.103-20.642-8.642-30.667
				c-7.734-20.77-19.676-39.719-35.075-55.658C381,36.274,361.413,24.845,339.97,18.543C299.18,4.677,256.172-1.506,213.128,0.309
				c-37.571,1.509-74.07,12.948-105.783,33.15c-44.724,30.472-73.854,79.008-79.708,132.808c-3.083,26.846,0.15,54.042,9.442,79.417
				c4.967,12.754,11.295,24.936,18.875,36.333c6.766,11.684,11.956,24.212,15.433,37.258c8.465,27.364,11.966,56.022,10.339,84.619
				c-3.853-2.658-8.646-3.572-13.206-2.519c-5.737,1.297-10.389,5.481-12.283,11.05c-7.892,23.009-21.142,65.4-21.142,90.908
				c-0.001,2.264,0.897,4.435,2.498,6.035c1.601,1.601,3.772,2.499,6.035,2.498h238.933c1.006-0.006,2.003-0.191,2.945-0.547
				c0.298-0.141,0.587-0.299,0.866-0.475c0.962-0.372,1.798-1.01,2.41-1.84c0.737-0.684,1.28-1.55,1.577-2.51
				c0.193-0.368,0.358-0.75,0.494-1.143c3.036-12.504,15.178-46.109,35.717-58.459c31.911,10.056,60.811,16.955,70.733,18.992
				c2.289,0.456,4.616,0.688,6.95,0.691c14.251-0.158,26.743-9.565,30.833-23.217c2.811-7.305,3.825-15.179,2.958-22.958
				c-0.317-2.275-0.833-4.533-1.35-6.783c-1.081-3.236-1.42-6.674-0.992-10.058c0.7-2.6,2.842-4.008,7.933-6.833
				c2.138-1.143,4.215-2.394,6.225-3.75c2.758-1.941,4.585-4.942,5.042-8.283c0.328-4.269-0.639-8.539-2.775-12.25
				c2.9-2.167,6.042-4.583,7.783-6.133c8.45-6.725,2.967-16.125-0.317-21.742c-1.167-2-2.517-4.308-3.85-7.025
				c-1.133-2.6-1.442-5.486-0.883-8.267c0.433-2.225,6.85-5.4,10.684-7.292c3.398-1.579,6.655-3.447,9.733-5.583
				c5.897-3.324,10.192-8.9,11.9-15.45C488.629,291.617,481.212,282.534,476.304,276.526z M57.862,494.576h-0.009
				c-0.376,0.049-0.749,0.124-1.115,0.225h-4.085c3.93-26.208,10.486-51.954,19.567-76.85c3.713,3.676,7.629,7.141,11.729,10.379
				c0.108,0.072,0.185,0.178,0.298,0.245c35.935,28.661,94.839,51.693,138.824,66.166L57.862,494.576z M464.628,303.042
				c-2.132,1.368-4.357,2.585-6.658,3.642c-7.925,3.925-17.8,8.817-19.867,19.342c-1.285,6.457-0.461,13.156,2.35,19.108
				c1.508,3.067,3.058,5.725,4.4,8.042c0.425,0.717,0.908,1.542,1.342,2.317c-3.5,2.75-8.475,6.375-10.567,7.875
				c-1.897,1.362-3.153,3.442-3.476,5.755c-0.323,2.313,0.316,4.657,1.767,6.487c1.254,1.614,2.35,3.344,3.275,5.167
				c-0.608,0.35-1.225,0.683-1.833,1.025c-7.659,3.184-13.556,9.54-16.158,17.417c-1.245,6.063-0.947,12.341,0.867,18.258
				c0.408,1.758,0.825,3.517,1.067,5.233c0.479,5.074-0.252,10.189-2.133,14.925c-2.094,8.086-10.13,13.137-18.325,11.517
				c-13.979-2.864-41.943-9.914-71.182-19.257c-0.592-0.274-1.215-0.476-1.855-0.604c-21.096-6.542-41.709-14.553-61.687-23.972
				c-2.733-1.352-5.98-1.143-8.517,0.549c-2.537,1.691-3.979,4.607-3.783,7.65c0.196,3.043,2,5.75,4.734,7.102
				c15.811,7.594,32.069,14.218,48.685,19.835c-14.094,14.884-24.495,32.87-30.363,52.51
				c-28.614-7.755-128.113-36.635-179.089-75.564c3.826-34.684,0.453-69.785-9.909-103.106c-3.925-14.515-9.759-28.445-17.35-41.425
				c-6.931-10.392-12.728-21.497-17.292-33.125c-8.361-22.881-11.26-47.4-8.467-71.6c5.271-48.787,31.655-92.814,72.192-120.467
				c29.187-18.523,62.757-28.989,97.3-30.333c40.938-1.656,81.831,4.254,120.625,17.434c18.806,5.469,36.003,15.421,50.116,29
				c13.744,14.256,24.402,31.191,31.309,49.75c3.286,9.404,5.972,19.006,8.042,28.75c2.067,7.741,4.93,15.248,8.542,22.4
				c1.675,3.617,3.358,7.233,4.733,10.767c0.83,1.891,1.319,3.914,1.442,5.975c-0.375,2.541-3.875,5.666-7.259,8.692
				c-7.167,4.841-11.844,12.587-12.791,21.183c0.015,4.183,1.176,8.281,3.358,11.85c10.936,22.409,24.32,43.538,39.908,63
				l0.958,1.183c2.938,3.22,5.401,6.843,7.317,10.758C468.732,300.016,466.788,301.687,464.628,303.042z"/>
			<path d="M338.503,142.093c-4.516-0.004-9.002,0.739-13.275,2.2V85.201c0.001-2.264-0.897-4.435-2.498-6.035
				s-3.772-2.499-6.035-2.498h-67.383c-2.814-0.002-5.449,1.385-7.04,3.706c-1.591,2.321-1.935,5.278-0.918,7.903
				c0.94,2.501,1.409,5.154,1.383,7.825c0,13.351-10.823,24.175-24.175,24.175s-24.175-10.823-24.175-24.175
				c-0.025-2.671,0.444-5.324,1.383-7.825c1.017-2.624,0.673-5.581-0.918-7.903c-1.591-2.321-4.226-3.708-7.04-3.706h-67.383
				c-2.264-0.001-4.435,0.897-6.035,2.498s-2.499,3.772-2.498,6.035v67.383c-0.002,2.814,1.385,5.449,3.706,7.04
				c2.321,1.591,5.278,1.935,7.903,0.918c2.501-0.94,5.154-1.409,7.825-1.383c13.351,0,24.175,10.823,24.175,24.175
				s-10.823,24.175-24.175,24.175c-2.671,0.025-5.324-0.444-7.825-1.383c-2.624-1.017-5.581-0.673-7.903,0.918
				c-2.321,1.591-3.708,4.226-3.706,7.04v67.383c-0.001,2.264,0.897,4.435,2.498,6.035c1.601,1.601,3.772,2.499,6.035,2.498h73.817
				c3.374,0,6.431-1.988,7.799-5.072c1.368-3.084,0.79-6.685-1.474-9.186c-3.986-4.408-6.19-10.141-6.183-16.083
				c0-13.351,10.823-24.175,24.175-24.175s24.175,10.823,24.175,24.175c0.007,5.943-2.198,11.675-6.183,16.083
				c-2.264,2.501-2.842,6.102-1.474,9.186c1.368,3.084,4.425,5.072,7.799,5.072h73.817c2.264,0.001,4.435-0.897,6.035-2.498
				c1.601-1.601,2.499-3.772,2.498-6.035v-59.092c15.485,5.266,32.619,0.883,43.673-11.172s13.939-29.503,7.354-44.475
				C369.67,151.757,354.859,142.092,338.503,142.093z M338.503,207.509L338.503,207.509c-5.943,0.007-11.675-2.197-16.083-6.183
				c-2.501-2.264-6.102-2.842-9.186-1.474c-3.084,1.368-5.072,4.425-5.072,7.799v65.283h-50.558
				c5.803-17.048-0.126-35.889-14.646-46.542s-34.272-10.653-48.792,0s-20.449,29.494-14.646,46.542h-50.558v-48.425
				c0.783,0.042,1.575,0.067,2.367,0.067c22.777,0,41.242-18.464,41.242-41.242c0-22.777-18.464-41.242-41.242-41.242
				c-0.792,0-1.583,0.025-2.367,0.067V93.734h48.425c-0.042,0.783-0.067,1.575-0.067,2.367c0,22.777,18.464,41.242,41.242,41.242
				s41.242-18.464,41.242-41.242c0-0.792-0.025-1.583-0.067-2.367h48.425v65.283c0,3.374,1.988,6.431,5.072,7.799
				s6.685,0.79,9.186-1.474c4.408-3.986,10.141-6.19,16.083-6.183c13.351,0,24.175,10.823,24.175,24.175
				S351.855,207.509,338.503,207.509z"/>
		</g>
	</g>
</g>
<g>
</g>
<g>
</g>
<g>
</g>
<g>
</g>
<g>
</g>
<g>
</g>
<g>
</g>
<g>
</g>
<g>
</g>
<g>
</g>
<g>
</g>
<g>
</g>
<g>
</g>
<g>
</g>
<g>
</g>
</svg>
